<?xml version="1.0" standalone="no"?>
<!DOCTYPE svg PUBLIC "-//W3C//DTD SVG 20010904//EN"
 "http://www.w3.org/TR/2001/REC-SVG-20010904/DTD/svg10.dtd">
<svg version="1.0" xmlns="http://www.w3.org/2000/svg"
 width="300.000000pt" height="300.000000pt" viewBox="0 0 300.000000 300.000000"
 preserveAspectRatio="xMidYMid meet">

<g transform="translate(0.000000,300.000000) scale(0.100000,-0.100000)"
fill="#000000" stroke="none">
<path d="M1410 2670 l0 -240 -395 0 -396 0 -74 50 c-41 28 -77 50 -80 50 -10
0 -5 -2291 5 -2311 15 -27 40 -24 88 11 l42 30 0 1055 0 1055 405 0 405 0 0
-256 c0 -157 4 -263 10 -275 15 -27 40 -24 88 12 l42 31 0 244 0 244 400 0
400 0 0 -939 c0 -909 -1 -940 -19 -962 -19 -23 -24 -24 -203 -27 -100 -2 -187
-7 -193 -13 -17 -17 10 -28 125 -50 136 -25 157 -36 166 -86 12 -70 36 -78
119 -39 59 28 97 66 122 121 17 38 18 100 21 1001 l3 962 30 12 c19 8 29 19
27 29 -3 16 -145 130 -163 130 -5 0 -23 -17 -38 -39 l-28 -40 -385 0 -384 0 0
184 0 184 34 6 c18 4 41 15 50 25 29 32 15 37 -196 76 l-28 5 0 -240z"/>
<path d="M1052 1263 l3 -548 25 -3 c16 -2 38 8 63 28 l37 31 0 110 0 109 290
0 289 0 3 -102 c3 -95 5 -103 23 -106 12 -2 40 11 63 28 l42 30 0 393 0 393
30 11 c50 19 39 43 -49 106 -44 31 -82 57 -84 57 -2 0 -17 -18 -32 -40 l-28
-40 -263 0 -264 0 -67 41 c-38 23 -71 43 -76 46 -4 2 -6 -242 -5 -544z m708
272 l0 -125 -290 0 -290 0 0 125 0 125 290 0 290 0 0 -125z m0 -340 l0 -145
-290 0 -290 0 0 145 0 145 290 0 290 0 0 -145z"/>
</g>
</svg>
